<svg width="1136" height="719" viewBox="0 0 1136 719" fill="none" xmlns="http://www.w3.org/2000/svg">
<rect width="958" height="538" fill="white"/>
<path d="M958.5 201L768 283.5L688.5 414.5L513.5 397.5L467.5 487.5L350.5 538" stroke="#00BFFF" stroke-width="8"/>
<path d="M958.5 201L768 283.5L688.5 414.5L513.5 397.5L467.5 487.5L350.5 538" stroke="#00BFFF" stroke-width="8"/>
<path d="M1134 378L943.5 460.5L864 591.5L689 574.5L643 664.5L526 715" stroke="#00BFFF" stroke-width="8"/>
<path d="M1087 321L896.5 403.5L817 534.5L642 517.5L596 607.5L479 658" stroke="#00BFFF" stroke-width="8"/>
<path d="M1039 279L848.5 361.5L769 492.5L594 475.5L548 565.5L431 616" stroke="#00BFFF" stroke-width="8"/>
<path d="M997 236L806.5 318.5L727 449.5L552 432.5L506 522.5L389 573" stroke="#00BFFF" stroke-width="8"/>
</svg>
